HIERARCHY
ROOT root
{
	OFFSET 0.000000 0.000000 0.000000
	CHANNELS 6 Xposition Yposition Zposition Zrotation Yrotation Xrotation
	JOINT lhip
	{
		OFFSET 0.058581 -0.082280 -0.017664
		CHANNELS 3 Zrotation Yrotation Xrotation
		JOINT lknee
		{
			OFFSET 0.043451 -0.386469 0.008037
			CHANNELS 3 Zrotation Yrotation Xrotation
			JOINT lankle
			{
				OFFSET -0.014790 -0.426874 -0.037428
				CHANNELS 3 Zrotation Yrotation Xrotation
				JOINT ltoe
				{
					OFFSET 0.041054 -0.060286 0.122042
					CHANNELS 3 Zrotation Yrotation Xrotation
					End Site
					{
						OFFSET 0.000000 0.000000 0.000000
					}
				}
			}
		}
	}
	JOINT rhip
	{
		OFFSET -0.060310 -0.090513 -0.013543
		CHANNELS 3 Zrotation Yrotation Xrotation
		JOINT rknee
		{
			OFFSET -0.043257 -0.383688 -0.004843
			CHANNELS 3 Zrotation Yrotation Xrotation
			JOINT rankle
			{
				OFFSET 0.019056 -0.420046 -0.034562
				CHANNELS 3 Zrotation Yrotation Xrotation
				JOINT rtoe
				{
					OFFSET -0.034840 -0.062106 0.130323
					CHANNELS 3 Zrotation Yrotation Xrotation
					End Site
					{
						OFFSET 0.000000 0.000000 0.000000
					}
				}
			}
		}
	}
	JOINT lowerback
	{
		OFFSET 0.004439 0.124404 -0.038385
		CHANNELS 3 Zrotation Yrotation Xrotation
		JOINT upperback
		{
			OFFSET 0.004488 0.137956 0.026820
			CHANNELS 3 Zrotation Yrotation Xrotation
			JOINT chest
			{
				OFFSET -0.002265 0.056032 0.002855
				CHANNELS 3 Zrotation Yrotation Xrotation
				JOINT lowerneck
				{
					OFFSET -0.013390 0.211636 -0.033468
					CHANNELS 3 Zrotation Yrotation Xrotation
					JOINT upperneck
					{
						OFFSET 0.010113 0.088937 0.050410
						CHANNELS 3 Zrotation Yrotation Xrotation
						End Site
						{
							OFFSET 0.000000 0.000000 0.000000
						}
					}
				}
				JOINT lclavicle
				{
					OFFSET 0.071702 0.114000 -0.018898
					CHANNELS 3 Zrotation Yrotation Xrotation
					JOINT lshoulder
					{
						OFFSET 0.122921 0.045205 -0.019046
						CHANNELS 3 Zrotation Yrotation Xrotation
						JOINT lelbow
						{
							OFFSET 0.255332 -0.015649 -0.022946
							CHANNELS 3 Zrotation Yrotation Xrotation
							JOINT lwrist
							{
								OFFSET 0.265709 0.012698 -0.007375
								CHANNELS 3 Zrotation Yrotation Xrotation
								End Site
								{
									OFFSET 0.000000 0.000000 0.000000
								}
							}
						}
					}
				}
				JOINT rclavicle
				{
					OFFSET -0.082954 0.112472 -0.023707
					CHANNELS 3 Zrotation Yrotation Xrotation
					JOINT rshoulder
					{
						OFFSET -0.113228 0.046853 -0.008472
						CHANNELS 3 Zrotation Yrotation Xrotation
						JOINT relbow
						{
							OFFSET -0.260127 -0.014369 -0.031269
							CHANNELS 3 Zrotation Yrotation Xrotation
							JOINT rwrist
							{
								OFFSET -0.269108 0.006794 -0.006027
								CHANNELS 3 Zrotation Yrotation Xrotation
								End Site
								{
									OFFSET 0.000000 0.000000 0.000000
								}
							}
						}
					}
				}
			}
		}
	}
}
MOTION
Frames: 7
Frame Time: 0.033333
1.110407 0.205666 0.984413 -90.772939 9.701619 81.033731 7.254018 -0.982371 8.667870 -4.830268 -19.657748 18.866569 2.674012 15.177360 -27.490561 0.000000 -0.000000 0.000000 -1.231796 -1.356622 -18.060028 4.117013 -13.335675 51.429101 9.343573 -10.467806 -17.598999 0.000000 -0.000000 0.000000 -4.546209 -2.223192 14.328584 3.476450 -3.310686 6.547214 0.027263 -3.880585 7.171745 4.163784 8.877055 -0.448510 -0.919423 -5.446049 7.622104 -21.373669 7.547900 0.631401 -44.567828 -4.073938 3.918698 5.549000 -30.246990 0.664617 0.258676 -2.086111 -8.658857 26.679272 -6.181685 -4.614981 57.281437 -2.409725 12.717636 -14.109260 35.671988 -5.413854 5.967368 1.355199 -8.062902 
1.102400 0.211592 0.983378 -90.042151 10.697064 80.394396 8.879716 -0.974811 9.164405 -5.359182 -20.408000 20.366079 2.340871 15.139356 -28.425814 0.000000 -0.000000 0.000000 -3.657852 -2.059055 -20.056391 3.725038 -13.480920 50.493913 9.560411 -11.383822 -16.387695 0.000000 -0.000000 0.000000 -4.862692 -2.296428 14.331273 3.768706 -3.429549 6.828251 0.253461 -4.161341 7.180767 4.631293 8.833682 0.049066 -0.485469 -5.572399 7.816856 -21.180162 7.902886 0.843949 -42.965615 -4.826637 3.530985 4.440086 -30.432678 0.906838 -0.033618 -2.259545 -8.929647 27.290997 -6.575613 -4.737468 56.276829 -2.451965 12.795829 -13.710608 34.962115 -5.901596 6.460082 1.272905 -7.039830 
1.093807 0.218039 0.981801 -88.949203 11.642035 79.763128 10.525738 -0.837762 9.560183 -5.910836 -21.291007 22.049633 1.873533 14.951088 -29.718280 0.000000 -0.000000 0.000000 -6.478865 -2.710637 -21.064914 3.660859 -13.225846 47.324609 9.697262 -12.004075 -12.078276 0.000000 -0.000000 0.000000 -5.211068 -2.398915 14.936304 3.926231 -3.527444 6.308836 0.566342 -4.545112 7.265913 4.829097 8.251348 0.259723 -0.143473 -5.673711 8.012815 -21.069705 8.386658 0.992767 -41.220752 -5.592233 3.138019 3.283078 -30.943651 1.521118 0.663212 -3.024187 -8.983611 27.918878 -7.363668 -4.987793 55.194990 -2.665155 13.001385 -12.649374 34.343685 -5.881667 5.990083 0.900004 -5.843684 
1.083710 0.224768 0.979581 -87.629208 12.653287 79.252223 12.107049 -0.962642 9.985221 -6.200408 -22.371235 23.640208 1.662844 14.679055 -30.685829 0.000000 -0.000000 0.000000 -9.111740 -3.651358 -21.403644 3.469798 -12.401070 42.958671 9.896248 -12.675860 -6.779203 0.000000 -0.000000 0.000000 -5.597933 -2.158279 14.939753 4.210676 -3.846910 6.369426 0.931307 -4.963885 7.176911 5.101438 7.470262 1.039300 0.656091 -5.645671 8.269091 -20.678854 8.630951 1.422012 -39.891349 -6.572262 2.684217 2.305713 -31.759549 1.614292 0.667354 -2.572249 -9.388188 28.401736 -8.101067 -5.021356 54.331094 -3.052446 13.133460 -12.157514 33.826667 -6.097733 6.706108 0.820644 -4.833221 
1.071857 0.232388 0.977150 -85.918425 14.074844 78.744871 14.169174 -1.284988 10.347581 -6.607582 -23.761710 25.679421 1.019403 14.389608 -32.326586 0.000000 -0.000000 0.000000 -11.302834 -5.087784 -20.494228 3.575570 -11.586547 37.475949 10.106073 -12.880877 -5.032263 0.000000 -0.000000 0.000000 -5.661071 -2.156326 14.738245 4.451463 -4.317993 6.616386 1.177541 -5.340405 7.216004 5.531993 7.103596 1.545415 1.058680 -6.067002 8.335550 -20.201794 8.808919 2.131906 -38.401230 -7.284596 2.554412 1.408238 -33.283334 3.691753 1.624454 -3.130366 -9.884267 28.638490 -8.728657 -4.887246 53.987371 -3.532453 12.996882 -11.292649 33.275914 -5.361353 5.696341 0.537106 -4.717002 
1.059693 0.241411 0.973840 -84.648344 15.204896 78.389813 15.967173 -1.775088 10.683931 -6.988693 -24.715953 27.551146 0.610324 14.270278 -33.847520 0.000000 -0.000000 0.000000 -13.359760 -6.055378 -19.608541 3.289989 -10.379939 31.921186 10.381273 -13.234276 -0.657180 0.000000 -0.000000 0.000000 -5.989857 -1.886028 14.311624 4.602878 -4.623415 6.754874 1.406975 -5.572039 7.195871 5.959937 6.546517 2.321957 1.825435 -6.188807 8.693482 -19.712355 9.025931 2.883662 -36.886661 -8.174327 2.199653 0.512137 -34.629124 4.741026 1.846207 -3.796055 -10.495610 28.950836 -9.459082 -4.799659 53.704034 -4.087687 13.058244 -10.715885 32.438333 -5.053977 5.545734 0.469371 -4.586170 
1.047400 0.251454 0.969630 -83.719647 16.205169 78.274438 17.691420 -2.059245 10.923263 -7.059882 -25.436859 28.939485 0.516275 14.299242 -35.314401 0.000000 -0.000000 0.000000 -15.162732 -7.316462 -19.213215 3.202181 -8.941038 26.739470 11.072204 -13.409342 5.568145 0.000000 -0.000000 0.000000 -6.483071 -1.521252 13.787968 4.721187 -4.692661 6.583229 1.646529 -5.827393 7.224839 6.292839 5.699555 2.698428 2.459417 -6.269312 9.059828 -19.256332 9.648763 3.246377 -35.551542 -9.303917 1.846322 -0.468965 -35.865819 5.841556 2.352845 -4.312365 -10.852121 28.975412 -10.556298 -4.778005 53.575516 -4.432293 13.230358 -9.575842 31.707519 -4.516712 5.061212 0.408170 -4.064002 
